Coordinates
version=1
nRows=16
nColumns=40
inDegrees=yes

Units are S.I. units (second, meters, Newtons, ...)
If the header above contains a line with 'inDegrees', this indicates whether rotational values are in degrees (yes) or radians (no).

endheader
time	pelvis_tilt	pelvis_list	pelvis_rotation	pelvis_tx	pelvis_ty	pelvis_tz	hip_flexion_r	hip_adduction_r	hip_rotation_r	knee_angle_r	knee_angle_r_beta	ankle_angle_r	subtalar_angle_r	mtp_angle_r	hip_flexion_l	hip_adduction_l	hip_rotation_l	knee_angle_l	knee_angle_l_beta	ankle_angle_l	subtalar_angle_l	mtp_angle_l	lumbar_extension	lumbar_bending	lumbar_rotation	arm_flex_r	arm_add_r	arm_rot_r	elbow_flex_r	pro_sup_r	wrist_flex_r	wrist_dev_r	arm_flex_l	arm_add_l	arm_rot_l	elbow_flex_l	pro_sup_l	wrist_flex_l	wrist_dev_l
      3.37500000	      2.82872383	     -2.56906496	      2.26054137	     -0.35746183	      0.87788721	     -1.07599667	     44.27904344	     -1.23003509	     -1.64237397	      1.35428800	      0.02363678	     -9.25485249	      0.00000000	      0.00000000	     39.24381906	      0.16402813	     -3.99252598	     75.34466489	      1.31501248	     22.69169327	      0.00000000	      0.00000000	    -20.65899360	      0.80405887	      4.23543319	     89.94510226	     -1.39301910	     13.68716176	     39.55936106	     81.01515645	      0.00000000	      0.00000000	     89.96342987	     -0.30770382	     21.83939248	     43.43124693	     79.75701040	      0.00000000	      0.00000000
      3.38000000	      2.81597630	     -2.63576998	      2.17046381	     -0.35690705	      0.88039783	     -1.07602514	     44.12726784	     -1.11685717	     -1.64162302	      1.37411423	      0.02398282	     -9.23859437	      0.00000000	      0.00000000	     38.94015083	      0.07853503	     -3.98119506	     74.82795390	      1.30599417	     22.51549103	      0.00000000	      0.00000000	    -20.54662144	      0.86328412	      4.31798961	     89.94420935	     -1.39120277	     13.82571301	     39.35122092	     81.05391915	      0.00000000	      0.00000000	     89.96311418	     -0.33451308	     21.98949790	     43.27198579	     79.80522102	      0.00000000	      0.00000000
      3.38500000	      2.86971207	     -2.68857329	      2.14121251	     -0.35638272	      0.88298877	     -1.07620302	     43.90687083	     -1.05553437	     -1.69536875	      1.40630360	      0.02454463	     -9.26138709	      0.00000000	      0.00000000	     38.57839052	     -0.00443268	     -4.01987061	     74.30819737	      1.29692271	     22.32432234	      0.00000000	      0.00000000	    -20.48670810	      0.93498932	      4.33865127	     89.94321793	     -1.38806749	     13.99215074	     39.17567059	     81.09536271	      0.00000000	      0.00000000	     89.96282990	     -0.32994444	     22.20271142	     43.07730806	     79.85770858	      0.00000000	      0.00000000
      3.39000000	      3.13113937	     -2.70704545	      2.14168087	     -0.35557941	      0.88604683	     -1.07646976	     43.40984015	     -1.03870421	     -1.87247304	      1.41402121	      0.02467933	     -9.26481922	      0.00000000	      0.00000000	     37.95092136	     -0.03264223	     -4.03988649	     73.77135518	      1.28755304	     21.99563445	      0.00000000	      0.00000000	    -20.61552823	      0.97362767	      4.35287882	     89.94291168	     -1.48390872	     14.41046420	     38.88093293	     81.21843421	      0.00000000	      0.00000000	     89.96265997	     -0.36058589	     22.64327941	     42.87164548	     79.99963071	      0.00000000	      0.00000000
      3.39500000	      3.10411747	     -2.75055591	      2.11020376	     -0.35507349	      0.88853624	     -1.07656082	     43.26943651	     -0.97298956	     -1.88387247	      1.39157512	      0.02428757	     -9.21773471	      0.00000000	      0.00000000	     37.67492011	     -0.10010300	     -4.06476364	     73.26160367	      1.27865620	     21.82207259	      0.00000000	      0.00000000	    -20.48536465	      1.02063783	      4.34834668	     89.94136441	     -1.49847659	     14.65211792	     38.76764817	     81.29530594	      0.00000000	      0.00000000	     89.96217102	     -0.38903410	     22.90081973	     42.73846920	     80.09117303	      0.00000000	      0.00000000
      3.40000000	      3.09417495	     -2.80282936	      2.05587809	     -0.35454965	      0.89106325	     -1.07659276	     43.12223998	     -0.91218063	     -1.90213233	      1.42611875	      0.02489047	     -9.31040249	      0.00000000	      0.00000000	     37.36847755	     -0.21273268	     -4.11882554	     72.72315307	      1.26925846	     21.64099653	      0.00000000	      0.00000000	    -20.37187399	      1.06632299	      4.41049055	     89.94010961	     -1.50272011	     14.79023001	     38.57630794	     81.34350927	      0.00000000	      0.00000000	     89.96165041	     -0.37098513	     23.15280297	     42.60875765	     80.16033664	      0.00000000	      0.00000000
      3.40500000	      3.10471747	     -2.88278343	      2.01185604	     -0.35397421	      0.89367719	     -1.07666984	     42.93956288	     -0.81676448	     -1.90862304	      1.46506335	      0.02557018	     -9.30159230	      0.00000000	      0.00000000	     37.02889398	     -0.32059340	     -4.14825928	     72.16460099	      1.25950989	     21.43266500	      0.00000000	      0.00000000	    -20.27162524	      1.14083372	      4.44952645	     89.93902621	     -1.52084891	     14.98790071	     38.36584448	     81.39403841	      0.00000000	      0.00000000	     89.96115524	     -0.36630992	     23.43879136	     42.44636160	     80.23332199	      0.00000000	      0.00000000
      3.41000000	      3.15491639	     -2.94364763	      2.03704822	     -0.35340559	      0.89638144	     -1.07690877	     42.68752826	     -0.80333743	     -1.93063790	      1.49667580	      0.02612192	     -9.32521995	      0.00000000	      0.00000000	     36.66330901	     -0.39733966	     -4.17859966	     71.64820669	      1.25049711	     21.19347419	      0.00000000	      0.00000000	    -20.22270415	      1.23050381	      4.44516082	     89.93754275	     -1.56030259	     15.21596589	     38.19145762	     81.45245544	      0.00000000	      0.00000000	     89.96074954	     -0.35665502	     23.78131359	     42.25496732	     80.31717169	      0.00000000	      0.00000000
      3.41500000	      3.45594072	     -2.82891227	      2.00740895	     -0.35264515	      0.89941641	     -1.07717794	     42.13034779	     -0.86528900	     -2.05490243	      1.39571977	      0.02435991	     -9.30139092	      0.00000000	      0.00000000	     35.96471639	     -0.31425369	     -4.29654373	     71.07965831	      1.24057407	     20.90177262	      0.00000000	      0.00000000	    -20.40885346	      1.13045965	      4.38578880	     89.93671279	     -1.63608742	     15.83275005	     37.95957078	     81.72724159	      0.00000000	      0.00000000	     89.96062466	     -0.58721154	     24.61612828	     42.16129638	     80.73471213	      0.00000000	      0.00000000
      3.42000000	      3.37495826	     -2.95487565	      2.03886639	     -0.35219817	      0.90184217	     -1.07731141	     42.04694527	     -0.79941531	     -2.02714244	      1.44422509	      0.02520648	     -9.29919547	      0.00000000	      0.00000000	     35.77092365	     -0.46669400	     -4.30720333	     70.56997415	      1.23167840	     20.73808689	      0.00000000	      0.00000000	    -20.23561179	      1.27010173	      4.38509393	     89.93454983	     -1.62606276	     15.89174866	     37.80233346	     81.75646801	      0.00000000	      0.00000000	     89.95996739	     -0.52398482	     24.80199488	     42.00319411	     80.79592263	      0.00000000	      0.00000000
      3.42500000	      3.51934865	     -2.93560012	      1.94395123	     -0.35154517	      0.90472561	     -1.07726702	     41.72477713	     -0.74758060	     -2.08166373	      1.47271324	      0.02570369	     -9.43877822	      0.00000000	      0.00000000	     35.24073746	     -0.53243439	     -4.43577152	     69.96102766	      1.22105028	     20.41918996	      0.00000000	      0.00000000	    -20.24658138	      1.23325030	      4.45532559	     89.93321873	     -1.60458642	     16.18676226	     37.39040809	     81.87051005	      0.00000000	      0.00000000	     89.95976539	     -0.56495227	     25.42148350	     41.67708101	     81.02579553	      0.00000000	      0.00000000
      3.43000000	      3.59123635	     -2.97412282	      2.00770943	     -0.35082875	      0.90745804	     -1.07753146	     41.42206488	     -0.76268737	     -2.10876734	      1.43918916	      0.02511859	     -9.40027681	      0.00000000	      0.00000000	     34.83530333	     -0.56101523	     -4.42338367	     69.39120100	      1.21110493	     20.12726626	      0.00000000	      0.00000000	    -20.20358841	      1.30340420	      4.34783306	     89.93184091	     -1.60218335	     16.45340843	     37.14760054	     82.02048303	      0.00000000	      0.00000000	     89.95923985	     -0.64913651	     25.90236287	     41.50445268	     81.26914788	      0.00000000	      0.00000000
      3.43500000	      3.68893763	     -2.95448683	      1.96258443	     -0.35021967	      0.91026104	     -1.07764837	     41.09986170	     -0.75080145	     -1.97695215	      1.45441685	      0.02538436	     -9.28101552	      0.00000000	      0.00000000	     34.37756101	     -0.62143370	     -4.57451880	     68.81414925	      1.20103348	     19.85361905	      0.00000000	      0.00000000	    -20.21352377	      1.27492345	      4.34357939	     89.93017358	     -1.58488482	     16.69085303	     36.90381662	     82.21631576	      0.00000000	      0.00000000	     89.95881711	     -0.70318610	     26.34745346	     41.41863888	     81.59724191	      0.00000000	      0.00000000
      3.44000000	      3.73845032	     -2.99481109	      1.98570851	     -0.34946821	      0.91296835	     -1.07778562	     40.86699233	     -0.74132948	     -2.06695275	      1.48086649	      0.02584600	     -9.31287913	      0.00000000	      0.00000000	     33.97375898	     -0.66579722	     -4.57686029	     68.22575564	      1.19076407	     19.62138568	      0.00000000	      0.00000000	    -20.13827647	      1.33754841	      4.28303214	     89.92755203	     -1.54097717	     16.93288179	     36.62928440	     82.31395981	      0.00000000	      0.00000000	     89.95804002	     -0.73343713	     26.71408973	     41.16450624	     81.76178373	      0.00000000	      0.00000000
      3.44500000	      3.89023276	     -3.02484865	      2.01725414	     -0.34894785	      0.91591486	     -1.07799514	     40.49528716	     -0.74495490	     -2.11344752	      1.47481017	      0.02574029	     -9.37003198	      0.00000000	      0.00000000	     33.45704588	     -0.74127349	     -4.65201903	     67.60610471	      1.17994912	     19.34506103	      0.00000000	      0.00000000	    -20.19006671	      1.38242724	      4.19791589	     89.92631666	     -1.52095514	     17.25501410	     36.34688491	     82.47020203	      0.00000000	      0.00000000	     89.95759223	     -0.80549311	     27.22291069	     40.97297276	     82.00537088	      0.00000000	      0.00000000
      3.45000000	      3.82132910	     -3.11064436	      2.09471434	     -0.34821296	      0.91837221	     -1.07811790	     40.36061304	     -0.73798897	     -2.07057500	      1.48384793	      0.02589803	     -9.34029177	      0.00000000	      0.00000000	     33.21076506	     -0.85297599	     -4.68028947	     67.08511855	      1.17085620	     19.20508387	      0.00000000	      0.00000000	    -20.03235161	      1.51141444	      4.10897513	     89.92258775	     -1.47089122	     17.39504856	     36.22455989	     82.51669371	      0.00000000	      0.00000000	     89.95676598	     -0.80519249	     27.40106448	     40.87885319	     82.08067904	      0.00000000	      0.00000000
